<?xml version="1.0" encoding="iso-8859-1"?>
<!-- Generator: Adobe Illustrator 19.2.1, SVG Export Plug-In . SVG Version: 6.00 Build 0)  -->
<svg version="1.1" id="Layer_1" xmlns="http://www.w3.org/2000/svg" xmlns:xlink="http://www.w3.org/1999/xlink" x="0px" y="0px"
	 viewBox="0 0 100 100" style="enable-background:new 0 0 100 100;" xml:space="preserve">
<path style="fill:#B5D43C;" d="M84.317,92.475L69.834,66.104c0,0-5.994-3.496-10.655-2.6c-9.285,1.786-11.386,9.612-21.211,8.077
	c-3.729-0.583-7.802-5.478-7.802-5.478L15.683,92.475c-0.512,0.932,0.117,2.106,1.128,2.106H50h33.188
	C84.2,94.582,84.829,93.408,84.317,92.475z M27.246,89.879c-1.48,0-2.68-1.2-2.68-2.68c0-1.48,1.2-2.68,2.68-2.68
	c1.48,0,2.68,1.2,2.68,2.68C29.926,88.679,28.726,89.879,27.246,89.879z M32.607,80.439c-1.48,0-2.681-1.2-2.681-2.68
	c0-1.48,1.2-2.68,2.681-2.68c1.48,0,2.68,1.2,2.68,2.68C35.287,79.239,34.087,80.439,32.607,80.439z M36.628,85.363
	c-0.74,0-1.34-0.6-1.34-1.34c0-0.74,0.6-1.34,1.34-1.34c0.74,0,1.34,0.6,1.34,1.34C37.968,84.763,37.368,85.363,36.628,85.363z
	 M44.056,88.741c-1.303,0-2.359-1.056-2.359-2.359c0-1.303,1.056-2.359,2.359-2.359c1.303,0,2.359,1.056,2.359,2.359
	C46.415,87.685,45.359,88.741,44.056,88.741z M44.667,80.779c-1.98,0-3.585-1.605-3.585-3.585c0-1.98,1.605-3.585,3.585-3.585
	c1.98,0,3.585,1.605,3.585,3.585C48.252,79.174,46.647,80.779,44.667,80.779z M53.06,71.728c0-1.947,1.578-3.526,3.526-3.526
	c1.947,0,3.526,1.579,3.526,3.526c0,1.947-1.578,3.526-3.526,3.526C54.638,75.253,53.06,73.675,53.06,71.728z M55.158,79.521
	c0-0.974,0.789-1.763,1.763-1.763s1.763,0.789,1.763,1.763c0,0.974-0.789,1.763-1.763,1.763S55.158,80.495,55.158,79.521z
	 M59.159,89.665c-1.421,0-2.573-1.152-2.573-2.574c0-1.421,1.152-2.573,2.573-2.573s2.573,1.152,2.573,2.573
	C61.732,88.513,60.58,89.665,59.159,89.665z M66.238,82.682c-1.421,0-2.573-1.152-2.573-2.574c0-1.421,1.152-2.573,2.573-2.573
	c1.421,0,2.574,1.152,2.574,2.573C68.812,81.53,67.66,82.682,66.238,82.682z M73.455,91.074c-1.947,0-3.526-1.578-3.526-3.526
	c0-1.947,1.578-3.526,3.526-3.526c1.947,0,3.526,1.578,3.526,3.526C76.981,89.495,75.402,91.074,73.455,91.074z"/>
<path style="fill:none;stroke:#E2E2E2;stroke-width:3;stroke-miterlimit:10;" d="M59.347,46.65l-0.189-12.846
	c-0.011-0.764-0.594-1.377-1.308-1.377H50h-7.849c-0.715,0-1.297,0.613-1.308,1.377L40.653,46.65
	c-0.004,0.241-0.066,0.478-0.18,0.686l-24.79,45.14c-0.512,0.932,0.117,2.106,1.129,2.106H50h33.188
	c1.011,0,1.641-1.174,1.129-2.106l-24.79-45.14C59.412,47.127,59.35,46.891,59.347,46.65z"/>
<circle style="fill:#B5D43C;" cx="41.082" cy="63.504" r="2.01"/>
<circle style="fill:#B5D43C;" cx="47.748" cy="55.441" r="3.343"/>
<circle style="fill:#B5D43C;" cx="45.282" cy="40.693" r="1.969"/>
<circle style="fill:#B5D43C;" cx="52.404" cy="37.855" r="2.839"/>
<circle style="fill:#B5D43C;" cx="50.767" cy="24.724" r="1.637"/>
<ellipse transform="matrix(0.467 -0.8842 0.8842 0.467 15.4612 57.7988)" style="fill:#B5D43C;" cx="55.678" cy="16.074" rx="1.419" ry="1.419"/>
<circle style="fill:#B5D43C;" cx="49.126" cy="15.395" r="1.965"/>
<circle style="fill:#B5D43C;" cx="45.714" cy="8.835" r="3.417"/>
<circle style="fill:#B5D43C;" cx="45.706" cy="22.254" r="1.685"/>
<circle style="fill:#B5D43C;" cx="53.189" cy="48.24" r="1.969"/>
<circle style="fill:#B5D43C;" cx="57.646" cy="58.292" r="1.969"/>
<path style="fill:#E2E2E2;" d="M63.789,34.126H36.211c-0.871,0-1.583-0.712-1.583-1.583l0,0c0-0.871,0.712-1.583,1.583-1.583h27.578
	c0.871,0,1.583,0.712,1.583,1.583l0,0C65.373,33.413,64.66,34.126,63.789,34.126z"/>
</svg>
